<mxfile host="Electron" agent="Mozilla/5.0 (Windows NT 10.0; Win64; x64) AppleWebKit/537.36 (KHTML, like Gecko) draw.io/24.7.5 Chrome/126.0.6478.183 Electron/31.3.0 Safari/537.36" version="24.7.5">
  <diagram name="Page-1" id="Yfqs0_sCmjPY0gQy3nzE">
    <mxGraphModel dx="1195" dy="1564" grid="1" gridSize="10" guides="1" tooltips="1" connect="1" arrows="1" fold="1" page="1" pageScale="1" pageWidth="1169" pageHeight="827" math="0" shadow="0">
      <root>
        <mxCell id="0" />
        <mxCell id="1" parent="0" />
        <mxCell id="NR1cogIqlhjTcU2WUF2d-53" value="" style="rounded=0;whiteSpace=wrap;html=1;movable=1;resizable=1;rotatable=1;deletable=1;editable=1;locked=0;connectable=1;" parent="1" vertex="1">
          <mxGeometry x="1390" y="530" width="340" height="170" as="geometry" />
        </mxCell>
        <mxCell id="NR1cogIqlhjTcU2WUF2d-1" value="" style="endArrow=none;html=1;rounded=0;" parent="1" edge="1">
          <mxGeometry width="50" height="50" relative="1" as="geometry">
            <mxPoint as="sourcePoint" />
            <mxPoint x="1170" as="targetPoint" />
          </mxGeometry>
        </mxCell>
        <mxCell id="NR1cogIqlhjTcU2WUF2d-2" value="" style="endArrow=none;html=1;rounded=0;" parent="1" edge="1">
          <mxGeometry width="50" height="50" relative="1" as="geometry">
            <mxPoint y="826" as="sourcePoint" />
            <mxPoint x="1170" y="826" as="targetPoint" />
          </mxGeometry>
        </mxCell>
        <mxCell id="NR1cogIqlhjTcU2WUF2d-3" value="" style="endArrow=none;html=1;rounded=0;" parent="1" edge="1">
          <mxGeometry width="50" height="50" relative="1" as="geometry">
            <mxPoint y="830" as="sourcePoint" />
            <mxPoint as="targetPoint" />
          </mxGeometry>
        </mxCell>
        <mxCell id="NR1cogIqlhjTcU2WUF2d-4" value="" style="endArrow=none;html=1;rounded=0;" parent="1" edge="1">
          <mxGeometry width="50" height="50" relative="1" as="geometry">
            <mxPoint x="1169" y="829" as="sourcePoint" />
            <mxPoint x="1169" y="-1" as="targetPoint" />
          </mxGeometry>
        </mxCell>
        <mxCell id="NR1cogIqlhjTcU2WUF2d-5" value="&lt;h1&gt;&lt;font style=&quot;font-size: 34px;&quot;&gt;Auto door in the nutshell&lt;/font&gt;&lt;/h1&gt;" style="rounded=0;whiteSpace=wrap;html=1;fillColor=#0050ef;fontColor=#ffffff;strokeColor=#001DBC;" parent="1" vertex="1">
          <mxGeometry width="1170" height="100" as="geometry" />
        </mxCell>
        <mxCell id="NR1cogIqlhjTcU2WUF2d-6" value="&lt;h1 style=&quot;font-size: 18px;&quot;&gt;Chuyển chế độ&lt;/h1&gt;" style="rounded=0;whiteSpace=wrap;html=1;fillColor=#0050ef;fontColor=#ffffff;strokeColor=#001DBC;fontSize=18;" parent="1" vertex="1">
          <mxGeometry x="1380" y="140" width="150" height="40" as="geometry" />
        </mxCell>
        <mxCell id="NR1cogIqlhjTcU2WUF2d-7" value="&lt;h1 style=&quot;margin-top: 0px; font-size: 18px;&quot;&gt;Anninh / Auto&lt;/h1&gt;" style="text;html=1;whiteSpace=wrap;overflow=hidden;rounded=0;fontSize=18;" parent="1" vertex="1">
          <mxGeometry x="1570" y="145" width="130" height="30" as="geometry" />
        </mxCell>
        <mxCell id="NR1cogIqlhjTcU2WUF2d-8" value="" style="endArrow=none;html=1;rounded=0;" parent="1" edge="1">
          <mxGeometry width="50" height="50" relative="1" as="geometry">
            <mxPoint x="540" y="790" as="sourcePoint" />
            <mxPoint x="540" y="230" as="targetPoint" />
          </mxGeometry>
        </mxCell>
        <mxCell id="NR1cogIqlhjTcU2WUF2d-9" value="&lt;h1&gt;&lt;font style=&quot;font-size: 23px;&quot;&gt;Mở cửa&lt;/font&gt;&lt;/h1&gt;" style="text;html=1;align=center;verticalAlign=middle;whiteSpace=wrap;rounded=0;fontSize=20;fillColor=#0050ef;fontColor=#ffffff;strokeColor=#001DBC;" parent="1" vertex="1">
          <mxGeometry x="180" y="650" width="205" height="40" as="geometry" />
        </mxCell>
        <mxCell id="NR1cogIqlhjTcU2WUF2d-11" value="&lt;font style=&quot;font-size: 24px;&quot;&gt;chuyển chế độ&lt;/font&gt;&lt;div&gt;&lt;font style=&quot;font-size: 24px;&quot;&gt;chỉnh tốc độ x&lt;/font&gt;&lt;/div&gt;&lt;div&gt;&lt;font style=&quot;font-size: 24px;&quot;&gt;thay đổi mật khẩu&lt;/font&gt;&lt;/div&gt;&lt;div&gt;&lt;font style=&quot;font-size: 24px;&quot;&gt;mở cửa (1 nút)&lt;/font&gt;&lt;/div&gt;&lt;div&gt;&lt;font style=&quot;font-size: 24px;&quot;&gt;hiện log&lt;/font&gt;&lt;/div&gt;&lt;div&gt;&lt;font style=&quot;font-size: 24px;&quot;&gt;160.7 77.6&lt;/font&gt;&lt;/div&gt;" style="text;html=1;align=left;verticalAlign=top;whiteSpace=wrap;rounded=0;" parent="1" vertex="1">
          <mxGeometry x="690" y="880" width="500" height="340" as="geometry" />
        </mxCell>
        <mxCell id="NR1cogIqlhjTcU2WUF2d-13" value="Điều chỉnh tốc độ" style="text;html=1;align=center;verticalAlign=middle;whiteSpace=wrap;rounded=0;fontSize=24;" parent="1" vertex="1">
          <mxGeometry y="280" width="250" height="30" as="geometry" />
        </mxCell>
        <mxCell id="NR1cogIqlhjTcU2WUF2d-14" value="" style="endArrow=none;html=1;rounded=0;" parent="1" edge="1">
          <mxGeometry width="50" height="50" relative="1" as="geometry">
            <mxPoint x="240" y="300" as="sourcePoint" />
            <mxPoint x="520" y="300" as="targetPoint" />
          </mxGeometry>
        </mxCell>
        <mxCell id="NR1cogIqlhjTcU2WUF2d-15" value="" style="rounded=0;whiteSpace=wrap;html=1;" parent="1" vertex="1">
          <mxGeometry x="150" y="350" width="180" height="36" as="geometry" />
        </mxCell>
        <mxCell id="NR1cogIqlhjTcU2WUF2d-16" value="" style="rounded=0;whiteSpace=wrap;html=1;" parent="1" vertex="1">
          <mxGeometry x="150" y="436" width="180" height="36" as="geometry" />
        </mxCell>
        <mxCell id="NR1cogIqlhjTcU2WUF2d-17" value="Đóng" style="text;html=1;align=center;verticalAlign=middle;whiteSpace=wrap;rounded=0;fontSize=24;" parent="1" vertex="1">
          <mxGeometry x="60" y="354" width="60" height="30" as="geometry" />
        </mxCell>
        <mxCell id="NR1cogIqlhjTcU2WUF2d-18" value="Mở" style="text;html=1;align=center;verticalAlign=middle;whiteSpace=wrap;rounded=0;fontSize=24;" parent="1" vertex="1">
          <mxGeometry x="60" y="440" width="60" height="30" as="geometry" />
        </mxCell>
        <mxCell id="NR1cogIqlhjTcU2WUF2d-19" value="Thay đổi" style="rounded=0;whiteSpace=wrap;html=1;fontSize=24;fillColor=#0050ef;fontColor=#ffffff;strokeColor=#001DBC;" parent="1" vertex="1">
          <mxGeometry x="370" y="350" width="130" height="37" as="geometry" />
        </mxCell>
        <mxCell id="NR1cogIqlhjTcU2WUF2d-20" value="Thay đổi" style="rounded=0;whiteSpace=wrap;html=1;fontSize=24;fillColor=#0050ef;fontColor=#ffffff;strokeColor=#001DBC;" parent="1" vertex="1">
          <mxGeometry x="370" y="437" width="130" height="37" as="geometry" />
        </mxCell>
        <mxCell id="NR1cogIqlhjTcU2WUF2d-21" value="Log" style="text;html=1;align=center;verticalAlign=middle;whiteSpace=wrap;rounded=0;fontSize=24;" parent="1" vertex="1">
          <mxGeometry x="570" y="480" width="100" height="30" as="geometry" />
        </mxCell>
        <mxCell id="NR1cogIqlhjTcU2WUF2d-22" value="" style="endArrow=none;html=1;rounded=0;" parent="1" edge="1">
          <mxGeometry width="50" height="50" relative="1" as="geometry">
            <mxPoint x="680" y="500" as="sourcePoint" />
            <mxPoint x="1140" y="500" as="targetPoint" />
          </mxGeometry>
        </mxCell>
        <mxCell id="NR1cogIqlhjTcU2WUF2d-23" value="" style="rounded=0;whiteSpace=wrap;html=1;" parent="1" vertex="1">
          <mxGeometry x="580" y="550" width="560" height="230" as="geometry" />
        </mxCell>
        <mxCell id="NR1cogIqlhjTcU2WUF2d-24" value="Đổi mật khẩu" style="text;html=1;align=center;verticalAlign=middle;whiteSpace=wrap;rounded=0;fontSize=24;" parent="1" vertex="1">
          <mxGeometry x="570" y="250" width="200" height="30" as="geometry" />
        </mxCell>
        <mxCell id="NR1cogIqlhjTcU2WUF2d-25" value="" style="endArrow=none;html=1;rounded=0;exitX=1;exitY=0.75;exitDx=0;exitDy=0;" parent="1" source="NR1cogIqlhjTcU2WUF2d-24" edge="1">
          <mxGeometry width="50" height="50" relative="1" as="geometry">
            <mxPoint x="830" y="270" as="sourcePoint" />
            <mxPoint x="1140" y="273" as="targetPoint" />
          </mxGeometry>
        </mxCell>
        <mxCell id="NR1cogIqlhjTcU2WUF2d-26" value="" style="rounded=0;whiteSpace=wrap;html=1;" parent="1" vertex="1">
          <mxGeometry x="780" y="318" width="210" height="36" as="geometry" />
        </mxCell>
        <mxCell id="NR1cogIqlhjTcU2WUF2d-27" value="" style="rounded=0;whiteSpace=wrap;html=1;" parent="1" vertex="1">
          <mxGeometry x="740" y="403" width="250" height="36" as="geometry" />
        </mxCell>
        <mxCell id="NR1cogIqlhjTcU2WUF2d-28" value="Mật khẩu hiện tại" style="text;html=1;align=center;verticalAlign=middle;whiteSpace=wrap;rounded=0;fontSize=24;" parent="1" vertex="1">
          <mxGeometry x="570" y="324" width="210" height="30" as="geometry" />
        </mxCell>
        <mxCell id="NR1cogIqlhjTcU2WUF2d-29" value="Mật khẩu mới" style="text;html=1;align=center;verticalAlign=middle;whiteSpace=wrap;rounded=0;fontSize=24;" parent="1" vertex="1">
          <mxGeometry x="570" y="410" width="170" height="30" as="geometry" />
        </mxCell>
        <mxCell id="NR1cogIqlhjTcU2WUF2d-31" value="Thay đổi" style="rounded=0;whiteSpace=wrap;html=1;fontSize=24;fillColor=#0050ef;fontColor=#ffffff;strokeColor=#001DBC;" parent="1" vertex="1">
          <mxGeometry x="1010" y="403" width="130" height="37" as="geometry" />
        </mxCell>
        <mxCell id="NR1cogIqlhjTcU2WUF2d-32" value="Mở cửa" style="text;html=1;align=center;verticalAlign=middle;whiteSpace=wrap;rounded=0;fontSize=24;" parent="1" vertex="1">
          <mxGeometry x="30" y="560" width="100" height="30" as="geometry" />
        </mxCell>
        <mxCell id="NR1cogIqlhjTcU2WUF2d-33" value="" style="endArrow=none;html=1;rounded=0;" parent="1" edge="1">
          <mxGeometry width="50" height="50" relative="1" as="geometry">
            <mxPoint x="140" y="580" as="sourcePoint" />
            <mxPoint x="520" y="580" as="targetPoint" />
          </mxGeometry>
        </mxCell>
        <mxCell id="NR1cogIqlhjTcU2WUF2d-34" value="Hiện" style="rounded=0;whiteSpace=wrap;html=1;fontSize=24;fillColor=#0050ef;fontColor=#ffffff;strokeColor=#001DBC;" parent="1" vertex="1">
          <mxGeometry x="1010" y="317.5" width="130" height="37" as="geometry" />
        </mxCell>
        <mxCell id="NR1cogIqlhjTcU2WUF2d-35" value="" style="endArrow=none;html=1;rounded=0;" parent="1" edge="1">
          <mxGeometry width="50" height="50" relative="1" as="geometry">
            <mxPoint x="1360" as="sourcePoint" />
            <mxPoint x="1750" as="targetPoint" />
          </mxGeometry>
        </mxCell>
        <mxCell id="NR1cogIqlhjTcU2WUF2d-36" value="" style="endArrow=none;html=1;rounded=0;" parent="1" edge="1">
          <mxGeometry width="50" height="50" relative="1" as="geometry">
            <mxPoint x="1360" y="800.4761904761905" as="sourcePoint" />
            <mxPoint x="1360" as="targetPoint" />
          </mxGeometry>
        </mxCell>
        <mxCell id="NR1cogIqlhjTcU2WUF2d-37" value="" style="endArrow=none;html=1;rounded=0;" parent="1" edge="1">
          <mxGeometry width="50" height="50" relative="1" as="geometry">
            <mxPoint x="1360" y="800" as="sourcePoint" />
            <mxPoint x="1750" y="800" as="targetPoint" />
          </mxGeometry>
        </mxCell>
        <mxCell id="NR1cogIqlhjTcU2WUF2d-38" value="" style="endArrow=none;html=1;rounded=0;" parent="1" edge="1">
          <mxGeometry width="50" height="50" relative="1" as="geometry">
            <mxPoint x="1752" y="800.4761904761905" as="sourcePoint" />
            <mxPoint x="1752" as="targetPoint" />
          </mxGeometry>
        </mxCell>
        <mxCell id="NR1cogIqlhjTcU2WUF2d-39" value="&lt;h1&gt;&lt;font style=&quot;font-size: 29px;&quot;&gt;Auto door in the nutshell&lt;/font&gt;&lt;/h1&gt;" style="rounded=0;whiteSpace=wrap;html=1;fillColor=#0050ef;fontColor=#ffffff;strokeColor=#001DBC;" parent="1" vertex="1">
          <mxGeometry x="1360" width="390" height="100" as="geometry" />
        </mxCell>
        <mxCell id="NR1cogIqlhjTcU2WUF2d-40" value="Đổi mật khẩu" style="text;html=1;align=center;verticalAlign=middle;whiteSpace=wrap;rounded=0;fontSize=18;" parent="1" vertex="1">
          <mxGeometry x="1380" y="210" width="120" height="30" as="geometry" />
        </mxCell>
        <mxCell id="NR1cogIqlhjTcU2WUF2d-41" value="" style="endArrow=none;html=1;rounded=0;" parent="1" edge="1">
          <mxGeometry width="50" height="50" relative="1" as="geometry">
            <mxPoint x="1510" y="225" as="sourcePoint" />
            <mxPoint x="1710" y="225" as="targetPoint" />
          </mxGeometry>
        </mxCell>
        <mxCell id="NR1cogIqlhjTcU2WUF2d-42" value="" style="rounded=0;whiteSpace=wrap;html=1;" parent="1" vertex="1">
          <mxGeometry x="1385" y="314" width="340" height="36" as="geometry" />
        </mxCell>
        <mxCell id="NR1cogIqlhjTcU2WUF2d-43" value="" style="rounded=0;whiteSpace=wrap;html=1;" parent="1" vertex="1">
          <mxGeometry x="1390" y="420" width="340" height="36" as="geometry" />
        </mxCell>
        <mxCell id="NR1cogIqlhjTcU2WUF2d-44" value="Mật khẩu hiện tại" style="text;html=1;align=center;verticalAlign=middle;whiteSpace=wrap;rounded=0;fontSize=18;" parent="1" vertex="1">
          <mxGeometry x="1380" y="260" width="160" height="30" as="geometry" />
        </mxCell>
        <mxCell id="NR1cogIqlhjTcU2WUF2d-45" value="Mật khẩu mới" style="text;html=1;align=center;verticalAlign=middle;whiteSpace=wrap;rounded=0;fontSize=18;" parent="1" vertex="1">
          <mxGeometry x="1395" y="373" width="130" height="30" as="geometry" />
        </mxCell>
        <mxCell id="NR1cogIqlhjTcU2WUF2d-46" value="Thay đổi" style="rounded=0;whiteSpace=wrap;html=1;fontSize=18;fillColor=#0050ef;fontColor=#ffffff;strokeColor=#001DBC;" parent="1" vertex="1">
          <mxGeometry x="1600" y="373" width="130" height="30" as="geometry" />
        </mxCell>
        <mxCell id="NR1cogIqlhjTcU2WUF2d-47" value="Hiện" style="rounded=0;whiteSpace=wrap;html=1;fontSize=18;fillColor=#0050ef;fontColor=#ffffff;strokeColor=#001DBC;" parent="1" vertex="1">
          <mxGeometry x="1600" y="260" width="130" height="30" as="geometry" />
        </mxCell>
        <mxCell id="NR1cogIqlhjTcU2WUF2d-49" value="Log" style="text;html=1;align=center;verticalAlign=middle;whiteSpace=wrap;rounded=0;fontSize=18;" parent="1" vertex="1">
          <mxGeometry x="1385" y="490" width="55" height="30" as="geometry" />
        </mxCell>
        <mxCell id="NR1cogIqlhjTcU2WUF2d-50" value="" style="endArrow=none;html=1;rounded=0;" parent="1" edge="1">
          <mxGeometry width="50" height="50" relative="1" as="geometry">
            <mxPoint x="1440" y="504.65999999999997" as="sourcePoint" />
            <mxPoint x="1720" y="505" as="targetPoint" />
          </mxGeometry>
        </mxCell>
        <mxCell id="NR1cogIqlhjTcU2WUF2d-54" value="&lt;h1 style=&quot;font-size: 18px;&quot;&gt;&lt;font style=&quot;font-size: 18px;&quot;&gt;Mở cửa&lt;/font&gt;&lt;/h1&gt;" style="text;html=1;align=center;verticalAlign=middle;whiteSpace=wrap;rounded=0;fontSize=18;fillColor=#0050ef;fontColor=#ffffff;strokeColor=#001DBC;" parent="1" vertex="1">
          <mxGeometry x="1457.5" y="740" width="205" height="40" as="geometry" />
        </mxCell>
        <mxCell id="NR1cogIqlhjTcU2WUF2d-55" value="" style="endArrow=none;html=1;rounded=0;exitX=1;exitY=0.75;exitDx=0;exitDy=0;" parent="1" edge="1">
          <mxGeometry width="50" height="50" relative="1" as="geometry">
            <mxPoint x="1360" y="720" as="sourcePoint" />
            <mxPoint x="1750" y="720" as="targetPoint" />
          </mxGeometry>
        </mxCell>
        <mxCell id="p2As6f4lo6chYvRz5qPC-11" value="Web interface" style="rounded=0;whiteSpace=wrap;html=1;" vertex="1" parent="1">
          <mxGeometry x="1200" y="930" width="120" height="60" as="geometry" />
        </mxCell>
        <mxCell id="p2As6f4lo6chYvRz5qPC-12" value="Server" style="rounded=0;whiteSpace=wrap;html=1;" vertex="1" parent="1">
          <mxGeometry x="1457.5" y="930" width="120" height="60" as="geometry" />
        </mxCell>
        <mxCell id="p2As6f4lo6chYvRz5qPC-13" value="Arduino" style="rounded=0;whiteSpace=wrap;html=1;" vertex="1" parent="1">
          <mxGeometry x="1900" y="930" width="120" height="60" as="geometry" />
        </mxCell>
        <mxCell id="p2As6f4lo6chYvRz5qPC-14" value="ESP8266" style="rounded=0;whiteSpace=wrap;html=1;" vertex="1" parent="1">
          <mxGeometry x="1680" y="930" width="120" height="60" as="geometry" />
        </mxCell>
        <mxCell id="p2As6f4lo6chYvRz5qPC-15" value="Button Change Mode" style="text;html=1;align=center;verticalAlign=middle;whiteSpace=wrap;rounded=0;" vertex="1" parent="1">
          <mxGeometry x="1200" y="860" width="130" height="30" as="geometry" />
        </mxCell>
        <mxCell id="p2As6f4lo6chYvRz5qPC-16" value="" style="endArrow=classic;html=1;rounded=0;" edge="1" parent="1">
          <mxGeometry relative="1" as="geometry">
            <mxPoint x="1320" y="950" as="sourcePoint" />
            <mxPoint x="1460" y="950" as="targetPoint" />
          </mxGeometry>
        </mxCell>
        <mxCell id="p2As6f4lo6chYvRz5qPC-17" value="Mode" style="edgeLabel;resizable=0;html=1;;align=center;verticalAlign=middle;" connectable="0" vertex="1" parent="p2As6f4lo6chYvRz5qPC-16">
          <mxGeometry relative="1" as="geometry" />
        </mxCell>
        <mxCell id="p2As6f4lo6chYvRz5qPC-21" value="" style="endArrow=classic;html=1;rounded=0;exitX=1;exitY=0.5;exitDx=0;exitDy=0;entryX=0;entryY=0.5;entryDx=0;entryDy=0;" edge="1" parent="1">
          <mxGeometry relative="1" as="geometry">
            <mxPoint x="1578.75" y="950.42" as="sourcePoint" />
            <mxPoint x="1681.25" y="950.42" as="targetPoint" />
          </mxGeometry>
        </mxCell>
        <mxCell id="p2As6f4lo6chYvRz5qPC-23" value="Button Change Mode" style="text;html=1;align=center;verticalAlign=middle;whiteSpace=wrap;rounded=0;" vertex="1" parent="1">
          <mxGeometry x="1900" y="860" width="130" height="30" as="geometry" />
        </mxCell>
        <mxCell id="p2As6f4lo6chYvRz5qPC-24" value="" style="endArrow=classic;html=1;rounded=0;exitX=1;exitY=0.5;exitDx=0;exitDy=0;entryX=0;entryY=0.5;entryDx=0;entryDy=0;" edge="1" parent="1">
          <mxGeometry relative="1" as="geometry">
            <mxPoint x="1799.25" y="950" as="sourcePoint" />
            <mxPoint x="1901.25" y="950" as="targetPoint" />
          </mxGeometry>
        </mxCell>
        <mxCell id="p2As6f4lo6chYvRz5qPC-25" value="" style="endArrow=classic;html=1;rounded=0;" edge="1" parent="1">
          <mxGeometry relative="1" as="geometry">
            <mxPoint x="1458.75" y="970" as="sourcePoint" />
            <mxPoint x="1318.75" y="970" as="targetPoint" />
          </mxGeometry>
        </mxCell>
        <mxCell id="p2As6f4lo6chYvRz5qPC-26" value="Mode" style="edgeLabel;resizable=0;html=1;;align=center;verticalAlign=middle;" connectable="0" vertex="1" parent="p2As6f4lo6chYvRz5qPC-25">
          <mxGeometry relative="1" as="geometry" />
        </mxCell>
        <mxCell id="p2As6f4lo6chYvRz5qPC-27" value="" style="endArrow=classic;html=1;rounded=0;exitX=1;exitY=0.5;exitDx=0;exitDy=0;entryX=0;entryY=0.5;entryDx=0;entryDy=0;" edge="1" parent="1">
          <mxGeometry relative="1" as="geometry">
            <mxPoint x="1680" y="970.4200000000001" as="sourcePoint" />
            <mxPoint x="1577.5" y="970.4200000000001" as="targetPoint" />
          </mxGeometry>
        </mxCell>
        <mxCell id="p2As6f4lo6chYvRz5qPC-28" value="" style="endArrow=classic;html=1;rounded=0;exitX=1;exitY=0.5;exitDx=0;exitDy=0;entryX=0;entryY=0.5;entryDx=0;entryDy=0;" edge="1" parent="1">
          <mxGeometry relative="1" as="geometry">
            <mxPoint x="1900" y="970" as="sourcePoint" />
            <mxPoint x="1798" y="970" as="targetPoint" />
          </mxGeometry>
        </mxCell>
      </root>
    </mxGraphModel>
  </diagram>
</mxfile>
